<?xml version="1.0" encoding="utf-8"?>
<!-- Generator: Adobe Illustrator 25.4.1, SVG Export Plug-In . SVG Version: 6.00 Build 0)  -->
<svg version="1.1" id="Calque_1" xmlns="http://www.w3.org/2000/svg" xmlns:xlink="http://www.w3.org/1999/xlink" x="0px" y="0px"
	 viewBox="0 0 800 800" enable-background="new 0 0 800 800" xml:space="preserve">
<g>
	<path fill="#00FFFF" d="M454.4,258.5c0,60.5-21.9,113.3-54.4,141.5c-32.5-28.2-54.4-81-54.4-141.5c0-60.5,21.9-113.3,54.4-141.5
		C432.5,145.2,454.4,198,454.4,258.5z M400,400c-32.5,28.2-54.4,81-54.4,141.5S367.5,654.8,400,683c32.5-28.2,54.4-81,54.4-141.5
		C454.4,481,432.5,428.2,400,400z"/>
</g>
<g>
	<path fill="#00FFFF" d="M454.4,258.5c0,60.5-21.9,113.3-54.4,141.5c-32.5-28.2-54.4-81-54.4-141.5c0-60.5,21.9-113.3,54.4-141.5
		C432.5,145.2,454.4,198,454.4,258.5z M400,400c-32.5,28.2-54.4,81-54.4,141.5S367.5,654.8,400,683c32.5-28.2,54.4-81,54.4-141.5
		C454.4,481,432.5,428.2,400,400z"/>
</g>
<path fill="#FFFF00" d="M376.4,250.2c30.2,52.4,37.7,109,23.6,149.8c-42.3-8.2-87.7-43-117.9-95.3s-37.7-109-23.6-149.8
	C300.8,163.1,346.2,197.9,376.4,250.2z M400,400c-14.1,40.7-6.6,97.4,23.6,149.8c30.2,52.4,75.6,87.1,117.9,95.3
	c14.1-40.7,6.6-97.4-23.6-149.8S442.3,408.2,400,400z"/>
<g>
	<path fill="#00FFFF" d="M304.7,282.1C357,312.3,391.8,357.7,400,400c-40.7,14.1-97.4,6.6-149.8-23.6s-87.1-75.6-95.3-117.9
		C195.7,244.4,252.3,251.9,304.7,282.1z M400,400c8.2,42.3,43,87.7,95.3,117.9s109,37.7,149.8,23.6c-8.2-42.3-43-87.7-95.3-117.9
		S440.7,385.9,400,400z"/>
</g>
<path fill="#FFFF00" d="M258.5,345.6c60.5,0,113.3,21.9,141.5,54.4c-28.2,32.5-81,54.4-141.5,54.4c-60.5,0-113.3-21.9-141.5-54.4
	C145.2,367.5,198,345.6,258.5,345.6z M400,400c28.2,32.5,81,54.4,141.5,54.4S654.8,432.5,683,400c-28.2-32.5-81-54.4-141.5-54.4
	C481,345.6,428.2,367.5,400,400z"/>
<g>
	<path fill="#00FFFF" d="M250.2,423.6c52.4-30.2,109-37.7,149.8-23.6c-8.2,42.3-43,87.7-95.3,117.9s-109,37.7-149.8,23.6
		C163.1,499.2,197.9,453.8,250.2,423.6z M400,400c40.7,14.1,97.4,6.6,149.8-23.6s87.1-75.6,95.3-117.9
		c-40.7-14.1-97.4-6.6-149.8,23.6S408.2,357.7,400,400z"/>
</g>
<path fill="#FFFF00" d="M282.1,495.3C312.3,443,357.7,408.2,400,400c14.1,40.7,6.6,97.4-23.6,149.8s-75.6,87.1-117.9,95.3
	C244.4,604.3,251.9,547.7,282.1,495.3z M400,400c42.3-8.2,87.7-43,117.9-95.3c30.2-52.4,37.7-109,23.6-149.8
	c-42.3,8.2-87.7,43-117.9,95.3S385.9,359.3,400,400z"/>
<line fill="none" x1="0" y1="800" x2="800" y2="0"/>
<line fill="none" x1="0" y1="0" x2="800" y2="800"/>
<circle fill="#FF0000" cx="400" cy="400" r="120.6"/>
<g id="corner">
	<polygon fill="#FF0000" points="0,431.3 0,800 368.7,800 	"/>
	<path fill="#00FFFF" d="M235.4,715.3C130.9,704.4,0,800,0,800h269.8C269.8,800,339.8,726.2,235.4,715.3z"/>
	<path fill="#00FFFF" d="M84.7,564.6C95.6,669.1,0,800,0,800l0-269.8C0,530.2,73.8,460.2,84.7,564.6z"/>
	<path fill="#FFFF00" d="M73.7,726.3c36,5.1,68.8-0.1,101.9-33.2c33.1-33.1,63.2-131.9,63.2-131.9s-98.8,30.1-131.9,63.2
		C73.8,657.5,68.6,690.3,73.7,726.3z"/>
	<rect x="0" y="744" fill="#0000FF" width="56" height="56"/>
</g>
<g id="corner_00000047035832353310541770000009340369907053791362_">
	<polygon fill="#FF0000" points="431.3,800 800,800 800,431.3 	"/>
	<path fill="#00FFFF" d="M715.3,564.7C704.4,669.1,800,800,800,800V530.2C800,530.2,726.2,460.2,715.3,564.7z"/>
	<path fill="#00FFFF" d="M564.6,715.3C669.1,704.4,800,800,800,800H530.2C530.2,800,460.1,726.2,564.6,715.3z"/>
	<path fill="#FFFF00" d="M726.3,726.3c5.1-36-0.1-68.8-33.2-101.9c-33.1-33.1-131.9-63.2-131.9-63.2s30.1,98.8,63.2,131.9
		C657.5,726.2,690.3,731.4,726.3,726.3z"/>
	
		<rect x="744" y="744" transform="matrix(1.053681e-06 -1 1 1.053681e-06 -5.746662e-03 1543.9967)" fill="#0000FF" width="56" height="56"/>
</g>
<g id="corner_00000151510698322578847030000008314065737205412256_">
	<polygon fill="#FF0000" points="800,368.7 800,0 431.3,0 	"/>
	<path fill="#00FFFF" d="M564.6,84.7C669.1,95.6,800,0,800,0L530.2,0C530.2,0,460.2,73.8,564.6,84.7z"/>
	<path fill="#00FFFF" d="M715.3,235.4C704.4,130.9,800,0,800,0v269.8C800,269.8,726.2,339.9,715.3,235.4z"/>
	<path fill="#FFFF00" d="M726.3,73.7c-36-5.1-68.8,0.1-101.9,33.2c-33.1,33.1-63.2,131.9-63.2,131.9s98.8-30.1,131.9-63.2
		C726.2,142.5,731.4,109.7,726.3,73.7z"/>
	
		<rect x="744" y="0" transform="matrix(-1 -1.053726e-06 1.053726e-06 -1 1543.995 56.0107)" fill="#0000FF" width="56" height="56"/>
</g>
<g id="corner_00000147213953832086103480000009612942328104425096_">
	<polygon fill="#FF0000" points="368.7,0 0,0 0,368.7 	"/>
	<path fill="#00FFFF" d="M84.7,235.4C95.6,130.9,0,0,0,0l0,269.8C0,269.8,73.8,339.9,84.7,235.4z"/>
	<path fill="#00FFFF" d="M235.4,84.7C130.9,95.6,0,0,0,0l269.8,0C269.8,0,339.8,73.8,235.4,84.7z"/>
	<path fill="#FFFF00" d="M73.7,73.7c-5.1,36,0.1,68.8,33.2,101.9s131.9,63.2,131.9,63.2s-30.1-98.8-63.2-131.9S109.7,68.6,73.7,73.7
		z"/>
	
		<rect x="0" y="0" transform="matrix(-1.053771e-06 1 -1 -1.053771e-06 56.005 2.542984e-03)" fill="#0000FF" width="56" height="56"/>
</g>
<rect x="355.7" y="48.7" transform="matrix(0.7071 0.7071 -0.7071 0.7071 182.9081 -255.6081)" fill="#0000FF" width="88.5" height="88.5"/>
<rect x="48.7" y="355.7" transform="matrix(0.7071 -0.7071 0.7071 0.7071 -255.6086 182.9057)" fill="#0000FF" width="88.5" height="88.5"/>
<rect x="355.7" y="662.8" transform="matrix(-0.7071 -0.7071 0.7071 -0.7071 182.9011 1489.7948)" fill="#0000FF" width="88.5" height="88.5"/>
<rect x="662.8" y="355.7" transform="matrix(-0.7071 0.7071 -0.7071 -0.7071 1489.7943 182.9126)" fill="#0000FF" width="88.5" height="88.5"/>
<rect x="355.7" y="355.7" transform="matrix(-0.7071 0.7071 -0.7071 -0.7071 965.685 400.0056)" fill="#FFFF00" width="88.5" height="88.5"/>
</svg>
