<?xml version="1.0" encoding="utf-8"?>
<!-- Generator: Adobe Illustrator 24.0.2, SVG Export Plug-In . SVG Version: 6.00 Build 0)  -->
<svg version="1.1" id="Calque_1" xmlns="http://www.w3.org/2000/svg" xmlns:xlink="http://www.w3.org/1999/xlink" x="0px" y="0px"
	 viewBox="0 0 800 800" style="enable-background:new 0 0 800 800;" xml:space="preserve">
<style type="text/css">
	.st0{fill:#00FFFF;}
	.st1{fill:#FFFF00;}
	.st2{fill:none;}
	.st3{fill:#FF004F;}
	.st4{fill:#54ABC6;}
</style>
<g>
	<path class="st0" d="M454.4,258.5c0,60.5-21.9,113.3-54.4,141.5c-32.5-28.2-54.4-81-54.4-141.5S367.5,145.2,400,117
		C432.5,145.2,454.4,198,454.4,258.5z M400,400c-32.5,28.2-54.4,81-54.4,141.5S367.5,654.8,400,683c32.5-28.2,54.4-81,54.4-141.5
		S432.5,428.2,400,400z"/>
</g>
<g>
	<path class="st0" d="M454.4,258.5c0,60.5-21.9,113.3-54.4,141.5c-32.5-28.2-54.4-81-54.4-141.5S367.5,145.2,400,117
		C432.5,145.2,454.4,198,454.4,258.5z M400,400c-32.5,28.2-54.4,81-54.4,141.5S367.5,654.8,400,683c32.5-28.2,54.4-81,54.4-141.5
		S432.5,428.2,400,400z"/>
</g>
<path class="st1" d="M376.4,250.2c30.2,52.4,37.7,109,23.6,149.8c-42.3-8.2-87.7-43-117.9-95.3s-37.7-109-23.6-149.8
	C300.8,163.1,346.2,197.9,376.4,250.2z M400,400c-14.1,40.7-6.6,97.4,23.6,149.8c30.2,52.4,75.6,87.1,117.9,95.3
	c14.1-40.7,6.6-97.4-23.6-149.8S442.3,408.2,400,400z"/>
<g>
	<path class="st0" d="M304.7,282.1C357,312.3,391.8,357.7,400,400c-40.7,14.1-97.4,6.6-149.8-23.6s-87.1-75.6-95.3-117.9
		C195.7,244.4,252.3,251.9,304.7,282.1z M400,400c8.2,42.3,43,87.7,95.3,117.9c52.3,30.2,109,37.7,149.8,23.6
		c-8.2-42.3-43-87.7-95.3-117.9S440.7,385.9,400,400z"/>
</g>
<path class="st1" d="M258.5,345.6c60.5,0,113.3,21.9,141.5,54.4c-28.2,32.5-81,54.4-141.5,54.4S145.2,432.5,117,400
	C145.2,367.5,198,345.6,258.5,345.6z M400,400c28.2,32.5,81,54.4,141.5,54.4S654.8,432.5,683,400c-28.2-32.5-81-54.4-141.5-54.4
	S428.2,367.5,400,400z"/>
<g>
	<path class="st0" d="M250.2,423.6c52.4-30.2,109-37.7,149.8-23.6c-8.2,42.3-43,87.7-95.3,117.9c-52.3,30.2-109,37.7-149.8,23.6
		C163.1,499.2,197.9,453.8,250.2,423.6z M400,400c40.7,14.1,97.4,6.6,149.8-23.6s87.1-75.6,95.3-117.9
		c-40.7-14.1-97.4-6.6-149.8,23.6S408.2,357.7,400,400z"/>
</g>
<path class="st1" d="M282.1,495.3C312.3,443,357.7,408.2,400,400c14.1,40.7,6.6,97.4-23.6,149.8s-75.6,87.1-117.9,95.3
	C244.4,604.3,251.9,547.7,282.1,495.3z M400,400c42.3-8.2,87.7-43,117.9-95.3c30.2-52.4,37.7-109,23.6-149.8
	c-42.3,8.2-87.7,43-117.9,95.3S385.9,359.3,400,400z"/>
<line class="st2" x1="0" y1="800" x2="800" y2="0"/>
<line class="st2" x1="0" y1="0" x2="800" y2="800"/>
<circle class="st3" cx="400" cy="400" r="120.6"/>
<g id="corner">
	<polygon class="st4" points="0,431.3 0,800 368.7,800 	"/>
	<path class="st0" d="M235.4,715.3C130.9,704.4,0,800,0,800h269.8C269.8,800,339.8,726.2,235.4,715.3z"/>
	<path class="st0" d="M84.7,564.6C95.6,669.1,0,800,0,800V530.2C0,530.2,73.8,460.2,84.7,564.6z"/>
	<path class="st1" d="M73.7,726.3c36,5.1,68.8-0.1,101.9-33.2c33.1-33.1,63.2-131.9,63.2-131.9s-98.8,30.1-131.9,63.2
		S68.6,690.3,73.7,726.3z"/>
	<rect y="744" class="st3" width="56" height="56"/>
</g>
<g id="corner_00000047035832353310541770000009340369907053791362_">
	<polygon class="st4" points="431.3,800 800,800 800,431.3 	"/>
	<path class="st0" d="M715.3,564.7C704.4,669.1,800,800,800,800V530.2C800,530.2,726.2,460.2,715.3,564.7z"/>
	<path class="st0" d="M564.6,715.3C669.1,704.4,800,800,800,800H530.2C530.2,800,460.1,726.2,564.6,715.3z"/>
	<path class="st1" d="M726.3,726.3c5.1-36-0.1-68.8-33.2-101.9c-33.1-33.1-131.9-63.2-131.9-63.2s30.1,98.8,63.2,131.9
		S690.3,731.4,726.3,726.3z"/>
	<rect x="744" y="744" class="st3" width="56" height="56"/>
</g>
<g id="corner_00000151510698322578847030000008314065737205412256_">
	<polygon class="st4" points="800,368.7 800,0 431.3,0 	"/>
	<path class="st0" d="M564.6,84.7C669.1,95.6,800,0,800,0H530.2C530.2,0,460.2,73.8,564.6,84.7z"/>
	<path class="st0" d="M715.3,235.4C704.4,130.9,800,0,800,0v269.8C800,269.8,726.2,339.9,715.3,235.4z"/>
	<path class="st1" d="M726.3,73.7c-36-5.1-68.8,0.1-101.9,33.2c-33.1,33.1-63.2,131.9-63.2,131.9s98.8-30.1,131.9-63.2
		S731.4,109.7,726.3,73.7z"/>
	<rect x="744" y="0" class="st3" width="56" height="56"/>
</g>
<g id="corner_00000147213953832086103480000009612942328104425096_">
	<polygon class="st4" points="368.7,0 0,0 0,368.7 	"/>
	<path class="st0" d="M84.7,235.4C95.6,130.9,0,0,0,0v269.8C0,269.8,73.8,339.9,84.7,235.4z"/>
	<path class="st0" d="M235.4,84.7C130.9,95.6,0,0,0,0h269.8C269.8,0,339.8,73.8,235.4,84.7z"/>
	<path class="st1" d="M73.7,73.7c-5.1,36,0.1,68.8,33.2,101.9s131.9,63.2,131.9,63.2s-30.1-98.8-63.2-131.9S109.7,68.6,73.7,73.7z"
		/>
	<rect x="0" y="0" class="st3" width="56" height="56"/>
</g>
<polygon class="st1" points="400.1,350.3 361,369.1 351.3,411.4 378.4,445.3 421.7,445.3 448.8,411.4 439.1,369.1 "/>
<polygon class="st1" points="400.1,28 356.8,103 443.4,103 "/>
<polygon class="st1" points="778.6,404 707,355.2 700.5,441.6 "/>
<polygon class="st1" points="17.8,399.6 94.5,439.9 91.1,353.4 "/>
<polygon class="st1" points="406.9,781.5 450.2,706.5 363.6,706.5 "/>
</svg>
